<?xml version="1.0" standalone="no"?>
<!DOCTYPE svg PUBLIC "-//W3C//DTD SVG 20010904//EN"
 "http://www.w3.org/TR/2001/REC-SVG-20010904/DTD/svg10.dtd">
<svg version="1.0" xmlns="http://www.w3.org/2000/svg"
 width="460.000000pt" height="460.000000pt" viewBox="0 0 460.000000 460.000000"
 preserveAspectRatio="xMidYMid meet">
<metadata>
Created by potrace 1.14, written by Peter Selinger 2001-2017
</metadata>
<g transform="translate(0.000000,460.000000) scale(0.100000,-0.100000)"
fill="#000000" stroke="none">
<path d="M0 4590 c0 -7 581 -10 1723 -10 947 0 1982 -3 2300 -7 534 -6 577 -5
577 10 0 16 -162 17 -2300 17 -1527 0 -2300 -3 -2300 -10z"/>
<path d="M4463 4535 c0 -8 6 -16 14 -19 7 -3 13 -2 13 3 0 5 -6 14 -13 20 -10
8 -14 7 -14 -4z"/>
<path d="M4530 4472 c0 -12 5 -24 11 -28 8 -4 7 -9 -2 -15 -25 -16 -49 -10
-49 11 0 11 -7 20 -15 20 -25 0 -20 -94 7 -125 12 -14 28 -25 35 -25 7 0 13
-7 13 -15 0 -17 28 -53 53 -66 16 -9 17 -2 16 98 l0 108 -35 28 c-32 27 -34
28 -34 9z"/>
<path d="M4426 4423 c-11 -11 -6 -23 9 -23 8 0 15 4 15 9 0 13 -16 22 -24 14z"/>
<path d="M3767 4353 c-10 -9 -8 -33 2 -33 5 0 11 9 14 20 5 20 -3 26 -16 13z"/>
<path d="M4043 4303 c20 -47 60 -93 79 -93 10 0 18 -4 18 -9 0 -5 9 -11 20
-14 10 -3 22 -17 26 -32 6 -25 48 -68 294 -309 45 -44 90 -95 100 -115 l19
-36 1 87 c0 101 -10 123 -81 183 -26 22 -60 50 -74 63 -14 12 -39 29 -55 37
-16 8 -35 23 -42 32 -7 10 -21 23 -30 28 -8 6 -31 22 -50 37 -19 16 -47 29
-63 30 -16 2 -30 10 -32 19 -3 9 -16 22 -29 28 -13 6 -24 16 -24 22 0 17 -57
69 -74 69 -13 0 -13 -5 -3 -27z"/>
<path d="M3474 4204 c-21 -13 -46 -24 -54 -24 -18 0 -66 -52 -75 -80 -4 -11
-13 -20 -21 -20 -8 0 -14 -9 -14 -20 0 -26 21 -17 49 20 16 23 30 30 55 30 39
0 80 37 70 64 -4 11 -2 15 8 11 8 -3 22 3 32 13 27 31 -3 34 -50 6z"/>
<path d="M3760 4085 c-17 -9 -29 -10 -37 -3 -9 7 -14 6 -17 -3 -2 -8 -14 -42
-25 -77 -12 -34 -21 -64 -21 -66 0 -2 35 -6 78 -9 42 -3 102 -10 132 -15 57
-9 90 -6 90 9 0 5 -7 9 -15 9 -9 0 -18 12 -21 30 -4 17 -12 30 -20 30 -7 0
-37 25 -66 55 -51 52 -54 53 -78 40z"/>
<path d="M2695 4040 c-44 -4 -93 -11 -108 -18 -33 -14 -203 -26 -220 -15 -14
8 -52 6 -123 -8 -47 -9 -56 -16 -130 -100 -43 -50 -80 -95 -82 -100 -2 -5 -9
-9 -15 -9 -13 0 -95 -99 -115 -140 -6 -14 -23 -43 -35 -65 -59 -100 -67 -117
-67 -130 0 -8 -4 -15 -10 -15 -5 0 -10 -5 -10 -10 0 -13 51 13 69 34 8 9 27
15 49 14 20 -1 31 -3 24 -6 -14 -4 -16 -32 -2 -32 5 0 9 -3 8 -7 0 -5 6 -23
14 -42 12 -26 16 -30 22 -16 3 10 12 15 21 11 9 -3 15 0 15 8 0 8 7 17 16 20
15 6 15 4 3 -10 -12 -15 -11 -16 11 -9 14 4 41 21 61 36 40 32 79 41 44 11
-11 -9 -27 -26 -35 -36 -14 -17 -13 -18 6 -12 15 4 24 2 28 -9 3 -8 1 -15 -4
-15 -6 0 -10 -8 -10 -17 0 -14 2 -15 9 -4 5 7 17 11 28 7 12 -4 31 3 53 19 31
23 70 34 70 19 0 -12 -24 -51 -52 -83 -16 -18 -26 -36 -23 -39 3 -4 9 -2 13 4
4 5 28 25 54 43 49 35 78 36 78 2 0 -11 4 -21 10 -23 5 -1 17 -41 26 -88 9
-47 22 -98 30 -115 7 -16 16 -57 19 -90 4 -33 12 -89 20 -125 7 -36 16 -93 20
-127 4 -35 11 -63 15 -63 5 0 11 -12 13 -27 2 -16 5 -4 6 25 1 54 17 72 23 25
5 -42 -3 -104 -12 -98 -5 3 -6 -11 -3 -31 8 -49 -12 -38 -21 11 -4 20 -15 44
-25 54 -9 9 -23 39 -31 65 -7 26 -21 57 -31 69 -9 13 -20 36 -22 52 -3 17 -4
-26 -2 -95 2 -86 7 -137 19 -165 l16 -40 -6 58 c-4 33 -2 57 3 57 10 0 37 -81
49 -142 6 -38 -6 -52 -23 -26 -10 16 -123 55 -183 63 -62 9 -130 -18 -128 -49
2 -21 4 -22 61 -13 68 10 136 3 163 -18 18 -14 18 -14 -3 -15 -27 0 -101 -33
-129 -57 -19 -16 -54 -73 -54 -88 0 -3 8 -5 18 -5 9 0 30 18 46 39 28 39 56
51 117 51 19 0 29 -5 29 -15 0 -10 -10 -15 -30 -15 -20 0 -30 -5 -30 -15 0
-10 10 -15 28 -15 l27 0 -32 -21 c-18 -12 -33 -27 -33 -34 0 -7 -10 -25 -22
-41 -25 -31 -25 -56 0 -85 21 -24 52 -25 59 0 3 10 17 21 31 25 44 9 53 20 60
72 l7 49 18 -37 c40 -83 3 -154 -101 -196 -56 -22 -64 -21 -144 19 -13 7 -16
5 -11 -7 7 -19 67 -44 105 -44 79 0 159 75 178 167 10 44 14 53 20 38 7 -18 6
-44 -5 -100 -2 -11 -14 -30 -25 -43 -11 -12 -17 -22 -13 -22 4 0 -9 -9 -30
-20 -20 -11 -48 -20 -61 -20 -13 0 -27 -7 -30 -16 -10 -25 139 -14 159 12 18
23 18 31 3 36 -9 3 -6 19 10 56 12 28 22 60 22 71 0 12 5 21 11 21 6 0 9 17 7
43 -2 29 -8 42 -18 42 -8 0 -17 13 -21 30 -4 17 -10 39 -14 49 -7 16 -5 18 9
13 23 -9 37 30 26 76 -6 27 -4 39 6 48 8 6 14 19 14 29 0 10 6 23 14 29 8 7
20 35 26 63 5 28 28 87 49 132 21 45 42 96 45 114 5 21 14 32 25 32 19 0 71
55 71 76 0 8 4 14 9 14 5 0 15 24 22 53 6 28 18 66 25 84 8 17 20 73 29 124 8
50 17 94 20 97 3 3 5 -21 5 -54 0 -55 -7 -95 -24 -154 -8 -24 -8 -24 8 -5 8
11 16 35 16 54 0 26 3 31 13 23 8 -7 18 -7 27 -2 23 14 20 338 -3 399 -10 24
-15 46 -12 49 2 3 10 -8 16 -24 40 -102 53 -496 20 -589 -26 -74 -71 -166 -98
-201 -24 -32 -32 -57 -11 -36 7 7 15 12 19 12 9 0 19 -39 10 -44 -3 -3 -2 -40
3 -84 6 -49 6 -141 0 -242 -8 -147 -6 -198 9 -174 2 5 8 63 13 129 4 66 9 125
10 130 1 6 2 48 3 95 1 76 12 123 25 110 14 -15 22 -413 10 -545 -7 -77 -53
-234 -54 -183 0 21 -4 25 -19 21 -16 -4 -19 -13 -18 -46 1 -30 -2 -41 -11 -39
-7 1 -12 -3 -11 -10 2 -14 -6 -42 -22 -71 -5 -9 -6 -35 -3 -57 5 -29 2 -46 -8
-58 -8 -9 -21 -37 -28 -62 -8 -25 -20 -49 -27 -53 -16 -10 -17 -37 -2 -37 5 0
7 -5 3 -11 -3 -6 -6 -28 -6 -50 0 -21 -3 -41 -9 -44 -5 -4 -9 -22 -9 -41 0
-19 -4 -34 -10 -34 -5 0 -10 -8 -10 -17 0 -15 2 -16 10 -3 8 12 10 12 10 1 0
-25 35 31 92 149 64 131 65 133 88 215 10 33 27 89 39 125 56 174 66 200 79
195 7 -3 18 7 24 20 13 29 26 32 35 10 7 -19 -16 -135 -27 -135 -4 0 -11 -16
-14 -36 -4 -19 -16 -50 -27 -67 -10 -18 -19 -38 -19 -46 0 -8 -6 -22 -14 -30
-19 -22 -56 -121 -45 -121 5 0 9 6 9 14 0 8 11 28 25 44 14 17 25 34 25 39 0
6 9 21 20 34 12 13 52 65 90 114 39 50 73 95 78 100 4 6 7 17 8 25 0 18 26 60
36 60 4 0 4 -8 1 -17 -4 -11 2 -8 18 8 26 26 53 89 37 89 -5 0 -6 5 -3 10 4 6
11 8 16 5 5 -4 9 3 9 13 0 12 9 22 21 25 13 3 18 10 14 17 -4 7 -16 9 -27 7
-14 -4 -18 -2 -14 10 3 8 6 21 6 29 0 8 4 14 9 14 5 0 7 -9 4 -20 -3 -11 0
-20 6 -20 6 0 11 6 11 14 0 9 7 12 21 9 15 -4 22 0 26 16 7 28 23 27 24 -1 1
-21 2 -21 6 -3 3 11 9 24 13 29 13 13 0 36 -20 36 -10 0 -20 -7 -24 -15 -7
-19 -26 -19 -26 0 0 8 9 29 20 47 11 18 20 45 20 59 0 34 6 39 35 25 19 -8 25
-19 25 -43 0 -26 4 -33 19 -33 14 0 21 -8 23 -27 2 -14 9 -28 16 -31 18 -6 15
53 -4 73 -9 8 -14 24 -11 35 3 11 -1 24 -9 31 -8 6 -14 17 -14 23 0 6 -14 26
-32 45 -26 28 -30 37 -22 59 6 17 20 30 42 36 20 6 32 15 32 26 0 10 7 20 15
24 8 3 15 12 15 21 0 9 9 15 23 14 21 0 21 -1 2 -9 -17 -7 -15 -9 13 -9 18 -1
47 -8 63 -17 30 -15 104 -22 116 -10 4 3 17 -4 30 -16 l23 -21 0 59 c0 32 -4
74 -9 92 -10 33 -6 62 9 62 13 0 30 -85 32 -162 l2 -73 4 60 c5 80 -15 235
-40 313 -11 34 -17 69 -14 77 3 8 -10 49 -29 90 -19 41 -35 90 -36 108 0 27
-2 29 -9 12 -7 -17 -9 -15 -9 13 -1 17 -5 32 -11 32 -5 0 -10 8 -10 18 0 26
-33 43 -68 33 -23 -7 -32 -5 -43 11 -8 10 -28 27 -45 37 -25 15 -34 30 -44 69
-6 28 -18 56 -26 63 -21 17 -19 109 2 109 10 0 14 6 11 14 -3 7 0 19 6 25 9 9
8 11 -3 6 -9 -3 -20 3 -28 16 -13 21 -12 21 22 17 34 -4 35 -3 29 22 -3 14
-10 33 -14 42 -5 9 -9 25 -9 36 0 23 -30 52 -53 52 -9 0 -17 4 -17 8 0 11 -45
32 -66 32 -9 0 -30 6 -47 14 -18 8 -50 17 -72 20 -22 3 -58 8 -79 12 -28 5
-37 4 -32 -4 4 -7 15 -12 25 -12 10 0 26 -10 37 -21 l19 -21 -55 6 c-30 4 -75
14 -100 21 -25 8 -67 21 -94 30 -27 8 -70 15 -96 15 -25 0 -50 3 -55 8 -6 4
-46 5 -90 2z m-215 -264 c0 -15 -24 -66 -31 -66 -11 0 -11 0 2 39 6 17 15 31
20 31 5 0 9 -2 9 -4z m-51 -43 c-58 -72 -129 -147 -123 -130 3 9 9 17 13 17 4
0 29 29 56 65 27 36 54 65 58 65 5 0 3 -8 -4 -17z m-267 -15 c-7 -7 -12 -8
-12 -2 0 14 12 26 19 19 2 -3 -1 -11 -7 -17z m-56 -58 c-20 -22 -36 -38 -36
-34 0 10 63 84 68 79 3 -2 -12 -23 -32 -45z m316 -53 c-5 -7 -13 -27 -17 -45
-4 -18 -9 -31 -13 -28 -3 3 3 33 14 67 12 39 20 53 22 39 2 -12 -1 -26 -6 -33z
m-396 -24 c-20 -21 -44 -46 -53 -55 -9 -10 -21 -18 -26 -18 -13 0 60 83 86 97
34 19 33 16 -7 -24z m451 -155 c0 -121 -3 -169 -9 -143 -13 66 -8 325 6 325 1
0 2 -82 3 -182z m-199 122 c-12 -16 -23 -30 -25 -30 -9 0 -1 31 13 44 27 27
36 17 12 -14z m209 -372 c-3 -8 -6 -5 -6 6 -1 11 2 17 5 13 3 -3 4 -12 1 -19z
m74 -485 c-8 -15 -10 -15 -11 -2 0 17 10 32 18 25 2 -3 -1 -13 -7 -23z m886
-5 c-3 -8 -6 -5 -6 6 -1 11 2 17 5 13 3 -3 4 -12 1 -19z m-1032 -318 c3 -5 -1
-10 -9 -10 -9 0 -16 5 -16 10 0 6 4 10 9 10 6 0 13 -4 16 -10z m482 -412 c-3
-8 -6 -5 -6 6 -1 11 2 17 5 13 3 -3 4 -12 1 -19z"/>
<path d="M3945 3873 c-11 -2 -36 -20 -55 -39 -19 -19 -54 -48 -77 -64 -38 -26
-43 -35 -43 -68 0 -29 8 -48 33 -78 46 -54 63 -89 76 -161 6 -33 24 -90 40
-125 75 -165 95 -255 96 -448 2 -145 -6 -253 -26 -365 -7 -38 -12 -83 -12
-100 2 -54 42 -216 61 -243 10 -15 22 -35 25 -44 4 -10 11 -18 17 -18 5 0 10
-6 10 -13 0 -15 69 -83 160 -157 74 -61 145 -97 210 -106 55 -8 66 -14 49 -25
-8 -5 -39 -6 -69 -3 -54 5 -55 5 -34 -13 11 -10 36 -29 55 -43 18 -14 43 -35
55 -46 12 -12 34 -24 48 -28 14 -3 26 -11 26 -16 0 -20 -55 -32 -140 -32 -82
1 -84 0 -62 -17 28 -21 20 -31 -27 -31 -20 0 -73 -9 -119 -20 -46 -11 -95 -20
-110 -20 -24 -1 -25 -2 -8 -11 20 -12 198 -7 229 6 26 11 21 -12 -5 -27 -43
-23 -384 -18 -488 7 -14 4 13 -13 60 -36 47 -23 87 -46 88 -51 2 -4 8 -8 13
-8 15 0 69 -43 69 -55 0 -6 -25 -12 -62 -13 -35 -1 -85 -5 -113 -9 -41 -5 -46
-7 -25 -13 14 -4 64 -8 112 -9 l87 -2 53 -50 c29 -28 69 -61 88 -74 19 -12 48
-34 63 -49 32 -30 99 -66 122 -66 28 0 15 22 -49 86 -56 56 -116 141 -116 165
0 20 39 7 77 -26 46 -39 59 -44 41 -15 -18 28 -5 34 61 32 51 -2 59 0 64 18 8
31 37 25 38 -7 1 -21 3 -18 8 12 5 32 10 40 28 40 11 0 25 4 30 9 5 6 2 6 -7
1 -12 -7 -13 -6 -3 6 10 12 13 112 13 406 0 338 -2 392 -15 397 -8 3 -15 14
-15 25 0 14 5 19 15 15 13 -5 15 12 15 118 l0 124 -45 44 c-25 24 -45 48 -45
52 0 15 38 8 64 -13 l26 -20 0 194 0 194 -52 50 c-29 28 -71 72 -93 99 -22 26
-53 60 -70 76 -23 22 -26 28 -12 28 14 0 17 10 17 59 0 38 4 61 13 64 9 3 9 9
0 24 -12 22 -2 49 15 39 6 -4 22 6 35 20 l25 27 30 -22 c17 -11 35 -21 42 -21
6 0 20 -10 31 -22 18 -23 18 -21 19 135 0 145 -8 190 -25 138 -6 -20 -39 -37
-63 -32 -8 1 -22 -7 -32 -19 -31 -36 -89 -37 -141 -4 -24 15 -53 36 -64 46
-11 10 -45 39 -75 66 -30 26 -86 77 -125 115 -69 64 -83 71 -130 60z"/>
<path d="M1696 3258 c-17 -54 -45 -159 -50 -185 -5 -28 -3 -33 14 -33 13 0 20
7 20 18 0 10 7 27 15 38 8 10 15 29 15 41 0 12 4 24 9 27 11 7 22 73 14 92 -6
17 -32 19 -37 2z"/>
<path d="M1095 3147 c-16 -19 -155 -302 -155 -316 0 -16 21 -10 31 10 4 8 20
46 35 84 15 39 33 77 39 85 38 47 85 176 50 137z"/>
<path d="M892 2754 c-8 -9 -11 -23 -7 -32 6 -15 8 -13 16 7 12 31 8 43 -9 25z"/>
<path d="M1286 2743 c-14 -14 -4 -42 17 -49 12 -4 26 -12 30 -18 4 -6 6 4 5
23 -2 24 -9 36 -25 42 -11 4 -24 5 -27 2z"/>
<path d="M891 2684 c0 -11 3 -14 6 -6 3 7 2 16 -1 19 -3 4 -6 -2 -5 -13z"/>
<path d="M1248 2653 c-19 -3 -28 -10 -28 -23 0 -20 19 -30 55 -30 34 0 40 -28
10 -42 -26 -12 -72 -75 -62 -85 3 -3 18 4 33 16 32 25 52 26 80 3 33 -28 45
-59 43 -112 -2 -27 1 -53 6 -57 4 -5 5 38 2 94 -4 78 -10 113 -27 146 -23 46
-65 98 -78 96 -4 -1 -19 -4 -34 -6z"/>
<path d="M1380 2645 c0 -8 4 -15 10 -15 5 0 7 7 4 15 -4 8 -8 15 -10 15 -2 0
-4 -7 -4 -15z"/>
<path d="M1997 2583 c-14 -15 -21 -15 -37 -5 -19 12 -50 7 -50 -8 0 -26 78
-32 94 -8 6 10 19 18 28 18 10 0 18 5 18 10 0 16 -34 11 -53 -7z"/>
<path d="M1306 2405 c-3 -8 -12 -15 -20 -15 -21 0 -31 -63 -16 -100 7 -17 16
-30 20 -30 10 0 20 26 20 51 0 10 7 19 15 19 11 0 15 12 15 45 0 32 -4 45 -14
45 -8 0 -16 -7 -20 -15z"/>
<path d="M3595 2293 c-17 -82 -31 -121 -52 -153 -13 -19 -23 -41 -23 -50 0 -8
-6 -27 -14 -41 -7 -14 -16 -43 -20 -65 -4 -21 -16 -50 -25 -64 -10 -14 -25
-47 -35 -74 -17 -53 -21 -79 -7 -58 6 10 15 5 35 -20 27 -32 80 -111 101 -150
5 -10 13 -18 17 -18 11 0 10 2 -7 44 -14 34 -14 36 4 36 10 0 30 -9 44 -20 51
-41 68 -21 54 64 -3 15 212 7 250 -9 18 -8 33 -12 33 -10 0 2 14 0 31 -5 59
-17 82 11 24 30 -24 8 -35 18 -35 31 0 14 -7 19 -26 19 -16 0 -45 16 -74 40
-26 22 -51 40 -55 40 -4 0 -31 25 -61 55 -39 40 -54 62 -54 82 0 16 3 23 8 16
4 -6 21 -15 37 -19 17 -3 37 -12 45 -19 29 -24 135 -74 182 -85 56 -14 86 -7
43 9 -37 14 -40 16 -90 47 -22 13 -57 32 -77 42 -23 10 -38 24 -38 35 0 9 -4
17 -10 17 -5 0 -10 7 -10 16 0 11 6 14 18 10 9 -3 -4 14 -30 37 -34 30 -48 51
-48 69 0 14 -7 28 -15 32 -10 4 -15 -1 -15 -14 0 -18 -3 -19 -21 -8 -17 11
-23 11 -26 0 -3 -6 -9 -10 -14 -6 -12 7 -12 74 1 74 6 0 10 5 10 10 0 6 -7 10
-15 10 -8 0 -15 9 -15 19 0 32 -19 34 -25 4z m172 -228 c0 -8 -4 -15 -9 -15
-4 0 -8 7 -8 15 0 8 4 15 8 15 5 0 9 -7 9 -15z"/>
<path d="M1361 2264 c-6 -15 -9 -29 -7 -32 3 -2 10 8 16 23 14 36 7 43 -9 9z"/>
<path d="M1170 2216 c0 -2 7 -9 15 -16 13 -11 14 -10 9 4 -5 14 -24 23 -24 12z"/>
<path d="M2160 2158 c0 -13 5 -30 10 -38 7 -11 10 -7 10 17 0 17 -4 35 -10 38
-6 3 -10 -4 -10 -17z"/>
<path d="M1263 2163 c9 -2 23 -2 30 0 6 3 -1 5 -18 5 -16 0 -22 -2 -12 -5z"/>
<path d="M2905 2134 c-13 -59 -13 -64 -5 -69 4 -3 11 16 15 41 7 51 -1 73 -10
28z"/>
<path d="M3227 1617 c-107 -116 -179 -223 -103 -152 15 14 30 25 34 25 4 1 16
13 27 27 11 15 34 41 50 59 33 34 71 101 63 109 -2 3 -34 -28 -71 -68z"/>
<path d="M3046 1394 c-20 -20 -36 -40 -36 -46 0 -5 18 9 40 32 22 23 40 44 40
46 0 9 -10 2 -44 -32z"/>
<path d="M3610 1347 c0 -10 72 -47 81 -42 21 13 8 35 -20 35 -16 0 -36 3 -45
6 -9 3 -16 4 -16 1z"/>
<path d="M2897 1283 c-34 -32 -66 -61 -72 -65 -77 -58 -156 -150 -142 -165 9
-8 46 16 57 37 6 11 16 20 22 20 13 0 119 106 162 163 65 86 59 88 -27 10z"/>
<path d="M2920 1216 c0 -9 7 -16 16 -16 17 0 14 22 -4 28 -7 2 -12 -3 -12 -12z"/>
<path d="M3015 1193 c-22 -3 -49 -12 -60 -22 -11 -10 -29 -23 -40 -29 -19 -11
-19 -11 5 -12 14 -1 41 -10 60 -20 19 -10 45 -24 58 -31 30 -17 36 -7 18 30
-9 16 -16 35 -16 40 0 10 50 36 85 44 24 6 -54 5 -110 0z"/>
<path d="M4413 1073 c9 -2 25 -2 35 0 9 3 1 5 -18 5 -19 0 -27 -2 -17 -5z"/>
<path d="M2589 977 c-66 -61 -116 -124 -106 -133 2 -2 15 7 28 21 13 13 27 25
30 25 9 0 149 135 149 143 0 22 -44 -2 -101 -56z"/>
<path d="M2788 1013 c7 -3 16 -2 19 1 4 3 -2 6 -13 5 -11 0 -14 -3 -6 -6z"/>
<path d="M2835 1014 c11 -3 33 -10 50 -15 21 -7 26 -6 19 1 -6 6 -28 13 -50
15 -21 2 -30 2 -19 -1z"/>
<path d="M2248 953 c-10 -2 -18 -9 -18 -14 0 -11 7 -11 50 6 30 12 31 13 10
13 -14 0 -33 -2 -42 -5z"/>
<path d="M3025 950 c-3 -5 1 -10 9 -10 13 0 16 -14 16 -79 0 -74 2 -80 20 -78
20 1 29 27 10 27 -6 0 -10 32 -10 75 0 68 -2 75 -19 75 -11 0 -23 -4 -26 -10z"/>
<path d="M2163 927 c-42 -16 -51 -27 -19 -23 14 1 29 6 33 9 3 4 15 7 25 7 10
0 18 5 18 10 0 13 -16 12 -57 -3z"/>
<path d="M2039 870 c-13 -10 -18 -19 -11 -20 6 0 12 4 12 8 0 5 12 13 28 19
16 6 20 11 11 12 -9 1 -27 -8 -40 -19z"/>
<path d="M1976 838 c-36 -20 -66 -52 -65 -67 0 -11 4 -9 11 6 6 12 26 29 44
38 19 9 34 20 34 25 0 12 0 12 -24 -2z"/>
<path d="M3180 841 c0 -5 5 -13 10 -16 6 -3 10 -2 10 4 0 5 -4 13 -10 16 -5 3
-10 2 -10 -4z"/>
<path d="M3090 761 c0 -6 4 -13 10 -16 6 -3 7 1 4 9 -7 18 -14 21 -14 7z"/>
<path d="M3059 598 c0 -2 -2 -26 -4 -55 -3 -44 -1 -53 16 -58 10 -4 19 -10 19
-15 0 -4 13 -13 29 -18 16 -6 34 -19 40 -31 10 -18 9 -19 -23 -14 -19 3 -36 1
-40 -5 -9 -15 71 -130 122 -176 24 -22 41 -45 38 -53 -3 -7 7 -19 24 -28 17
-9 30 -19 30 -23 0 -4 14 -13 30 -19 29 -11 31 -10 24 10 -3 12 -17 39 -30 59
-13 21 -24 44 -24 52 0 8 -9 18 -20 21 -11 3 -20 12 -20 19 0 7 -11 23 -25 36
-14 13 -25 31 -25 39 0 9 -9 27 -20 41 -11 14 -20 34 -20 46 0 40 -24 72 -57
79 -39 7 -45 16 -45 61 0 19 -4 34 -9 34 -5 0 -9 -1 -10 -2z"/>
<path d="M2549 393 c-37 -16 -109 -75 -103 -85 13 -20 97 7 138 45 11 9 25 17
31 17 6 0 20 6 30 14 17 12 15 14 -24 18 -23 2 -56 -2 -72 -9z"/>
<path d="M2900 277 c6 -6 135 -37 153 -37 7 1 0 7 -14 15 -26 14 -149 34 -139
22z"/>
<path d="M2105 183 c-114 -107 -130 -120 -154 -128 -19 -6 -28 -2 -41 15 -13
17 -22 21 -36 15 -17 -7 -17 -8 6 -14 16 -5 27 -17 34 -39 14 -51 79 -36 112
26 10 19 29 41 41 49 13 9 23 21 23 27 0 7 18 31 40 55 36 38 46 51 38 51 -2
0 -30 -26 -63 -57z"/>
</g>
</svg>
